<svg width="67" height="30" viewBox="0 0 67 30" fill="none" xmlns="http://www.w3.org/2000/svg">
<path d="M15 0C6.71512 0 0 6.71512 0 15C0 23.2849 6.71512 30 15 30C23.2849 30 30 23.2849 30 15C30 6.71512 23.2849 0 15 0ZM10.4302 22.8663H6.77616V11.1192H10.4302V22.8663ZM8.59884 9.50581C7.43023 9.50581 6.47965 8.55523 6.47965 7.38663C6.47965 6.21802 7.43023 5.26744 8.59884 5.26744C9.76744 5.26744 10.718 6.21802 10.718 7.38663C10.718 8.55523 9.76744 9.50581 8.59884 9.50581ZM24.0959 22.8663H20.4506V17.1541C20.4506 15.7936 20.4244 14.0407 18.5494 14.0407C16.6483 14.0407 16.3605 15.5233 16.3605 17.0581V22.875H12.7151V11.1192H16.2209V12.7238H16.2645C16.9797 11.5029 18.3052 10.7703 19.718 10.8227C23.4157 10.8227 24.0959 13.2558 24.0959 16.4215V22.8663Z" fill="#FDFDFD"/>
<g clip-path="url(#clip0_2_33)">
<rect width="30" height="30" transform="translate(37)" fill="white"/>
<path d="M52 2.7025C56.005 2.7025 56.48 2.7175 58.0613 2.79C59.6963 2.865 61.38 3.2375 62.5713 4.42875C63.7738 5.63125 64.135 7.29875 64.21 8.93875C64.2825 10.52 64.2975 10.995 64.2975 15C64.2975 19.005 64.2825 19.48 64.21 21.0613C64.1362 22.6875 63.755 24.3875 62.5713 25.5713C61.3688 26.7738 59.7025 27.135 58.0613 27.21C56.48 27.2825 56.005 27.2975 52 27.2975C47.995 27.2975 47.52 27.2825 45.9388 27.21C44.325 27.1362 42.6025 26.7463 41.4288 25.5713C40.2325 24.375 39.865 22.6913 39.79 21.0613C39.7175 19.48 39.7025 19.005 39.7025 15C39.7025 10.995 39.7175 10.52 39.79 8.93875C39.8638 7.31875 40.2487 5.60875 41.4288 4.42875C42.6287 3.22875 44.3025 2.865 45.9388 2.79C47.52 2.7175 47.995 2.7025 52 2.7025ZM52 0C47.9262 0 47.415 0.0175 45.815 0.09C43.4963 0.19625 41.1937 0.84125 39.5175 2.5175C37.835 4.2 37.1962 6.4975 37.09 8.815C37.0175 10.415 37 10.9262 37 15C37 19.0737 37.0175 19.585 37.09 21.185C37.1962 23.5012 37.8437 25.81 39.5175 27.4825C41.1988 29.1637 43.5 29.8037 45.815 29.91C47.415 29.9825 47.9262 30 52 30C56.0737 30 56.585 29.9825 58.185 29.91C60.5025 29.8037 62.8075 29.1575 64.4825 27.4825C66.1663 25.7987 66.8037 23.5025 66.91 21.185C66.9825 19.585 67 19.0737 67 15C67 10.9262 66.9825 10.415 66.91 8.815C66.8037 6.49625 66.1575 4.1925 64.4825 2.5175C62.8037 0.83875 60.4963 0.195 58.185 0.09C56.585 0.0175 56.0737 0 52 0Z" fill="black"/>
<path d="M52 7.29749C47.7462 7.29749 44.2975 10.7462 44.2975 15C44.2975 19.2537 47.7462 22.7025 52 22.7025C56.2537 22.7025 59.7025 19.2537 59.7025 15C59.7025 10.7462 56.2537 7.29749 52 7.29749ZM52 20C49.2387 20 47 17.7612 47 15C47 12.2387 49.2387 9.99999 52 9.99999C54.7612 9.99999 57 12.2387 57 15C57 17.7612 54.7612 20 52 20Z" fill="black"/>
<path d="M60.0075 8.79251C61.0016 8.79251 61.8075 7.98662 61.8075 6.9925C61.8075 5.99839 61.0016 5.1925 60.0075 5.1925C59.0134 5.1925 58.2075 5.99839 58.2075 6.9925C58.2075 7.98662 59.0134 8.79251 60.0075 8.79251Z" fill="black"/>
</g>
<defs>
<clipPath id="clip0_2_33">
<rect width="30" height="30" fill="white" transform="translate(37)"/>
</clipPath>
</defs>
</svg>
