<svg width="63" height="63" viewBox="0 0 63 63" fill="none" xmlns="http://www.w3.org/2000/svg">
<path d="M52.4014 16.6227L52.3684 16.3085C51.8774 11.6869 49.41 7.46643 45.5075 4.57282C41.605 1.67921 36.586 0.348727 31.5513 0.873217L17.9879 2.30131C12.9544 2.83688 8.32122 5.18365 5.10452 8.82684C1.88783 12.47 0.350321 17.1122 0.829243 21.735L2.62395 38.8407C3.04593 42.9363 4.83905 46.7881 7.75685 49.8667L9.45372 51.6638L9.6515 53.5488C9.93044 56.19 11.3402 58.6022 13.5709 60.2551C15.8016 61.908 18.6707 62.6664 21.5474 62.3635L45.9552 59.7936C48.8331 59.4906 51.483 58.1503 53.3219 56.0675C55.1609 53.9847 56.0382 51.3301 55.761 48.6876L55.5935 47.0916L56.8578 45.7324C58.7895 43.6441 60.2488 41.2253 61.1477 38.6217C62.0466 36.0181 62.3664 33.2835 62.088 30.5828L61.5459 25.4157C61.3113 23.2078 60.286 21.1471 58.6305 19.5561C56.975 17.9651 54.7827 16.9336 52.3968 16.6231L52.4014 16.6227ZM45.4369 54.8103L21.0246 57.3807C20.3122 57.4557 19.5934 57.4012 18.909 57.2201C18.2246 57.0391 17.5881 56.7352 17.0359 56.3258C15.9206 55.4988 15.2162 54.2921 15.0776 52.9712L50.3411 49.2583C50.4097 49.9125 50.3373 50.5751 50.128 51.2083C49.9187 51.8414 49.5765 52.4327 49.1211 52.9483C48.6657 53.4639 48.1059 53.8937 47.4738 54.2132C46.8416 54.5327 46.1495 54.7356 45.4369 54.8103ZM56.6681 31.1535C56.876 33.1791 56.6354 35.2298 55.9607 37.1824C55.2861 39.1349 54.1914 40.9488 52.7425 42.5149L51.2463 44.1251L13.3846 48.1116L11.898 46.538C9.70884 44.2266 8.36377 41.3353 8.04753 38.2612L7.15863 29.789C8.89861 30.4932 10.8185 30.7579 12.7235 30.5562L31.7114 28.557C32.4307 28.4813 33.0931 28.1462 33.5527 27.6257C34.0123 27.1051 34.2316 26.4416 34.1623 25.7811C34.093 25.1206 33.7408 24.5173 33.1832 24.1038C32.6255 23.6903 31.9081 23.5006 31.1888 23.5763L12.2032 25.5753C11.4905 25.6506 10.7712 25.5962 10.0864 25.4153C9.40161 25.2343 8.76475 24.9303 8.21222 24.5206C7.65969 24.1109 7.20232 23.6036 6.86627 23.0276C6.53022 22.4517 6.32206 21.8183 6.2537 21.1639C5.91151 17.8617 7.00975 14.5457 9.30751 11.9432C11.6053 9.34081 14.9149 7.66449 18.5105 7.28199L32.0739 5.8539C35.6702 5.47917 39.2555 6.42953 42.0432 8.49651C44.8308 10.5635 46.5933 13.5783 46.944 16.8796L46.9769 17.1938C44.7076 17.9944 42.7773 19.4599 41.4882 21.361C40.199 23.262 39.6238 25.4913 39.8526 27.6998L40.6365 35.1708C40.7058 35.8313 41.058 36.4347 41.6156 36.8481C42.1733 37.2616 42.8907 37.4513 43.61 37.3756C44.3293 37.2999 44.9917 36.9649 45.4513 36.4443C45.9109 35.9237 46.1302 35.2602 46.0609 34.5997L45.2771 27.1287C45.1385 25.8074 45.5771 24.4801 46.4966 23.4387C47.4161 22.3973 48.741 21.7272 50.18 21.5757C51.619 21.4242 53.054 21.8037 54.1696 22.6308C55.2851 23.458 55.9897 24.6649 56.1283 25.9861L56.6681 31.1535Z" fill="white"/>
</svg>
